<mxfile host="app.diagrams.net" modified="2023-04-04T06:56:02.756Z" agent="Mozilla/5.0 (X11; Linux x86_64) AppleWebKit/537.36 (KHTML, like Gecko) Chrome/111.0.0.0 Safari/537.36" etag="NpfRs_TcfO6ZMfBhJLtj" version="21.1.4" type="device">
  <diagram name="Page-1" id="2YBvvXClWsGukQMizWep">
    <mxGraphModel dx="1818" dy="647" grid="1" gridSize="10" guides="1" tooltips="1" connect="1" arrows="1" fold="1" page="1" pageScale="1" pageWidth="827" pageHeight="1169" math="0" shadow="0">
      <root>
        <mxCell id="0" />
        <mxCell id="1" parent="0" />
        <mxCell id="jsvgJYNI73I1Y0Frh0Hg-1" value="" style="rounded=1;whiteSpace=wrap;html=1;fontSize=18;strokeWidth=3;shadow=0;" parent="1" vertex="1">
          <mxGeometry x="-580" y="440" width="790" height="310" as="geometry" />
        </mxCell>
        <mxCell id="jsvgJYNI73I1Y0Frh0Hg-11" value="&lt;span style=&quot;font-size: 18px;&quot;&gt;1. &lt;a href=&quot;https://github.com/maticnetwork/pos-portal/blob/master/contracts/root/RootChainManager/RootChainManager.sol#L267&quot;&gt;depositFor()&lt;/a&gt;&lt;/span&gt;" style="edgeStyle=orthogonalEdgeStyle;rounded=0;orthogonalLoop=1;jettySize=auto;html=1;fontStyle=0;verticalAlign=middle;strokeColor=default;fontSize=18;strokeWidth=3;shadow=0;" parent="1" source="jsvgJYNI73I1Y0Frh0Hg-2" target="jsvgJYNI73I1Y0Frh0Hg-7" edge="1">
          <mxGeometry relative="1" as="geometry">
            <Array as="points">
              <mxPoint x="-620" y="689" />
              <mxPoint x="-620" y="500" />
            </Array>
          </mxGeometry>
        </mxCell>
        <mxCell id="jsvgJYNI73I1Y0Frh0Hg-14" value="&lt;font style=&quot;font-size: 18px;&quot;&gt;0. approve()&lt;/font&gt;" style="edgeStyle=orthogonalEdgeStyle;rounded=0;orthogonalLoop=1;jettySize=auto;html=1;entryX=0;entryY=0.5;entryDx=0;entryDy=0;verticalAlign=bottom;fontSize=18;strokeWidth=3;shadow=0;" parent="1" source="jsvgJYNI73I1Y0Frh0Hg-2" target="jsvgJYNI73I1Y0Frh0Hg-13" edge="1">
          <mxGeometry x="0.25" y="9" relative="1" as="geometry">
            <mxPoint as="offset" />
          </mxGeometry>
        </mxCell>
        <mxCell id="jsvgJYNI73I1Y0Frh0Hg-2" value="" style="shape=actor;whiteSpace=wrap;html=1;fontSize=18;strokeWidth=3;shadow=0;" parent="1" vertex="1">
          <mxGeometry x="-760" y="614" width="100" height="150" as="geometry" />
        </mxCell>
        <mxCell id="jsvgJYNI73I1Y0Frh0Hg-17" value="1.1 &lt;a href=&quot;https://github.com/maticnetwork/pos-portal/blob/master/contracts/root/TokenPredicates/ERC20Predicate.sol#L47&quot;&gt;lockTokens()&lt;/a&gt;" style="edgeStyle=orthogonalEdgeStyle;rounded=0;orthogonalLoop=1;jettySize=auto;html=1;entryX=0;entryY=0.5;entryDx=0;entryDy=0;fontSize=18;strokeWidth=3;shadow=0;" parent="1" source="jsvgJYNI73I1Y0Frh0Hg-7" target="jsvgJYNI73I1Y0Frh0Hg-16" edge="1">
          <mxGeometry relative="1" as="geometry" />
        </mxCell>
        <mxCell id="jsvgJYNI73I1Y0Frh0Hg-19" value="1.2 &lt;a href=&quot;https://github.com/maticnetwork/contracts/blob/main/contracts/root/stateSyncer/StateSender.sol#L33&quot;&gt;syncState()&lt;/a&gt;" style="edgeStyle=orthogonalEdgeStyle;rounded=0;orthogonalLoop=1;jettySize=auto;html=1;fontSize=18;verticalAlign=bottom;strokeWidth=3;shadow=0;" parent="1" source="jsvgJYNI73I1Y0Frh0Hg-7" target="jsvgJYNI73I1Y0Frh0Hg-18" edge="1">
          <mxGeometry relative="1" as="geometry" />
        </mxCell>
        <mxCell id="jsvgJYNI73I1Y0Frh0Hg-7" value="&lt;font style=&quot;font-size: 18px;&quot;&gt;RootChainManager&lt;/font&gt;" style="rounded=1;whiteSpace=wrap;html=1;fontSize=18;strokeWidth=3;shadow=0;" parent="1" vertex="1">
          <mxGeometry x="-545" y="470" width="185" height="60" as="geometry" />
        </mxCell>
        <mxCell id="jsvgJYNI73I1Y0Frh0Hg-12" value="" style="rounded=1;whiteSpace=wrap;html=1;fontSize=18;strokeWidth=3;shadow=0;" parent="1" vertex="1">
          <mxGeometry x="-580" y="110" width="780" height="170" as="geometry" />
        </mxCell>
        <mxCell id="jsvgJYNI73I1Y0Frh0Hg-13" value="&lt;font style=&quot;font-size: 18px;&quot;&gt;SomeERC20&lt;/font&gt;" style="rounded=1;whiteSpace=wrap;html=1;fontSize=18;strokeWidth=3;shadow=0;" parent="1" vertex="1">
          <mxGeometry x="-420" y="659" width="120" height="60" as="geometry" />
        </mxCell>
        <mxCell id="jsvgJYNI73I1Y0Frh0Hg-41" value="&lt;span style=&quot;font-size: 18px;&quot;&gt;1.1.1 safeTransferFrom()&lt;/span&gt;" style="edgeStyle=orthogonalEdgeStyle;rounded=0;orthogonalLoop=1;jettySize=auto;html=1;entryX=1;entryY=0.5;entryDx=0;entryDy=0;exitX=0.5;exitY=1;exitDx=0;exitDy=0;strokeWidth=3;" parent="1" source="jsvgJYNI73I1Y0Frh0Hg-16" target="jsvgJYNI73I1Y0Frh0Hg-13" edge="1">
          <mxGeometry x="-0.6825" relative="1" as="geometry">
            <mxPoint as="offset" />
          </mxGeometry>
        </mxCell>
        <mxCell id="jsvgJYNI73I1Y0Frh0Hg-16" value="ERC20Predicate" style="rounded=1;whiteSpace=wrap;html=1;fontSize=18;strokeWidth=3;shadow=0;" parent="1" vertex="1">
          <mxGeometry x="-254" y="570" width="180" height="60" as="geometry" />
        </mxCell>
        <mxCell id="jsvgJYNI73I1Y0Frh0Hg-20" value="&lt;font style=&quot;font-size: 18px;&quot;&gt;1.2.1 emit StateSynced&lt;/font&gt;" style="edgeStyle=orthogonalEdgeStyle;rounded=0;orthogonalLoop=1;jettySize=auto;html=1;endSize=6;endArrow=none;endFill=0;fontSize=18;strokeWidth=3;shadow=0;" parent="1" source="jsvgJYNI73I1Y0Frh0Hg-18" edge="1">
          <mxGeometry relative="1" as="geometry">
            <mxPoint x="-125" y="380" as="targetPoint" />
          </mxGeometry>
        </mxCell>
        <mxCell id="jsvgJYNI73I1Y0Frh0Hg-18" value="&lt;font style=&quot;font-size: 18px;&quot;&gt;StateSender&lt;/font&gt;" style="rounded=1;whiteSpace=wrap;html=1;fontSize=18;strokeWidth=3;shadow=0;" parent="1" vertex="1">
          <mxGeometry x="-190" y="470" width="130" height="60" as="geometry" />
        </mxCell>
        <mxCell id="jsvgJYNI73I1Y0Frh0Hg-22" value="" style="ellipse;whiteSpace=wrap;html=1;aspect=fixed;allowArrows=0;strokeWidth=3;container=0;fillColor=#000000;fontSize=18;shadow=0;" parent="1" vertex="1">
          <mxGeometry x="-334" y="350" width="20" height="20" as="geometry" />
        </mxCell>
        <mxCell id="jsvgJYNI73I1Y0Frh0Hg-25" value="" style="ellipse;whiteSpace=wrap;html=1;aspect=fixed;allowArrows=0;strokeWidth=3;container=0;fillColor=#000000;fontSize=18;shadow=0;" parent="1" vertex="1">
          <mxGeometry x="-304" y="350" width="20" height="20" as="geometry" />
        </mxCell>
        <mxCell id="jsvgJYNI73I1Y0Frh0Hg-26" value="" style="ellipse;whiteSpace=wrap;html=1;aspect=fixed;allowArrows=0;strokeWidth=3;container=0;fillColor=#000000;fontSize=18;shadow=0;" parent="1" vertex="1">
          <mxGeometry x="-274" y="350" width="20" height="20" as="geometry" />
        </mxCell>
        <mxCell id="jsvgJYNI73I1Y0Frh0Hg-32" value="&lt;span style=&quot;font-size: 18px;&quot;&gt;2.1&amp;nbsp;&lt;a href=&quot;https://github.com/maticnetwork/pos-portal/blob/master/contracts/child/ChildChainManager/ChildChainManager.sol#L57&quot;&gt;onStateRecieve()&lt;/a&gt;&lt;/span&gt;" style="edgeStyle=orthogonalEdgeStyle;rounded=0;orthogonalLoop=1;jettySize=auto;html=1;exitX=0.5;exitY=1;exitDx=0;exitDy=0;endArrow=none;endFill=0;startArrow=classic;startFill=1;fontSize=18;strokeWidth=3;shadow=0;" parent="1" source="jsvgJYNI73I1Y0Frh0Hg-31" edge="1">
          <mxGeometry relative="1" as="geometry">
            <mxPoint x="-460" y="320" as="targetPoint" />
          </mxGeometry>
        </mxCell>
        <mxCell id="jsvgJYNI73I1Y0Frh0Hg-35" value="2.1.1&amp;nbsp;&lt;a href=&quot;https://github.com/maticnetwork/pos-portal/blob/master/contracts/child/ChildToken/ChildERC20.sol#L51&quot;&gt;deposit()&lt;/a&gt;" style="edgeStyle=orthogonalEdgeStyle;rounded=0;orthogonalLoop=1;jettySize=auto;html=1;entryX=0;entryY=0.5;entryDx=0;entryDy=0;fontSize=18;verticalAlign=bottom;strokeWidth=3;shadow=0;" parent="1" source="jsvgJYNI73I1Y0Frh0Hg-31" target="jsvgJYNI73I1Y0Frh0Hg-34" edge="1">
          <mxGeometry relative="1" as="geometry" />
        </mxCell>
        <mxCell id="jsvgJYNI73I1Y0Frh0Hg-31" value="&lt;font style=&quot;font-size: 18px;&quot;&gt;ChildChainManager&lt;/font&gt;" style="rounded=1;whiteSpace=wrap;html=1;fontSize=18;strokeWidth=3;shadow=0;" parent="1" vertex="1">
          <mxGeometry x="-550" y="140" width="180" height="60" as="geometry" />
        </mxCell>
        <mxCell id="jsvgJYNI73I1Y0Frh0Hg-34" value="&lt;font style=&quot;font-size: 18px;&quot;&gt;SomeERC20&lt;/font&gt;" style="rounded=1;whiteSpace=wrap;html=1;fontSize=18;strokeWidth=3;shadow=0;" parent="1" vertex="1">
          <mxGeometry x="-210" y="140" width="150" height="60" as="geometry" />
        </mxCell>
        <mxCell id="jsvgJYNI73I1Y0Frh0Hg-37" value="2. wait for &lt;a href=&quot;https://github.com/maticnetwork/matic.js/blob/master/src/utils/bridge_client.ts#L24&quot;&gt;balance change&lt;/a&gt;" style="edgeStyle=orthogonalEdgeStyle;rounded=0;orthogonalLoop=1;jettySize=auto;html=1;fontSize=18;strokeWidth=3;shadow=0;entryX=0.5;entryY=0;entryDx=0;entryDy=0;" parent="1" source="jsvgJYNI73I1Y0Frh0Hg-2" target="jsvgJYNI73I1Y0Frh0Hg-34" edge="1">
          <mxGeometry x="-0.4927" relative="1" as="geometry">
            <mxPoint x="-130" y="40" as="targetPoint" />
            <Array as="points">
              <mxPoint x="-710" y="40" />
              <mxPoint x="-135" y="40" />
            </Array>
            <mxPoint as="offset" />
          </mxGeometry>
        </mxCell>
        <mxCell id="jsvgJYNI73I1Y0Frh0Hg-38" value="&lt;font style=&quot;font-size: 22px;&quot;&gt;MATIC Sidechain&lt;/font&gt;" style="text;html=1;strokeColor=none;fillColor=none;align=center;verticalAlign=middle;whiteSpace=wrap;rounded=0;" parent="1" vertex="1">
          <mxGeometry x="-10" y="240" width="210" height="30" as="geometry" />
        </mxCell>
        <mxCell id="jsvgJYNI73I1Y0Frh0Hg-39" value="&lt;font style=&quot;font-size: 22px;&quot;&gt;Ethereum&lt;/font&gt;" style="text;html=1;strokeColor=none;fillColor=none;align=center;verticalAlign=middle;whiteSpace=wrap;rounded=0;" parent="1" vertex="1">
          <mxGeometry x="-10" y="710" width="210" height="30" as="geometry" />
        </mxCell>
        <mxCell id="jsvgJYNI73I1Y0Frh0Hg-40" value="&lt;font style=&quot;font-size: 22px;&quot;&gt;StateSync process&lt;/font&gt;" style="text;html=1;strokeColor=none;fillColor=none;align=center;verticalAlign=middle;whiteSpace=wrap;rounded=0;" parent="1" vertex="1">
          <mxGeometry x="-396" y="310" width="210" height="30" as="geometry" />
        </mxCell>
        <mxCell id="8CzqEyUPqeCIx78_vM4F-1" value="2.1.1.1 _mint()" style="edgeStyle=orthogonalEdgeStyle;rounded=0;orthogonalLoop=1;jettySize=auto;html=1;exitX=0.5;exitY=1;exitDx=0;exitDy=0;entryX=0.25;entryY=1;entryDx=0;entryDy=0;strokeWidth=3;fontSize=18;" edge="1" parent="1" source="jsvgJYNI73I1Y0Frh0Hg-34" target="jsvgJYNI73I1Y0Frh0Hg-34">
          <mxGeometry x="-0.0968" y="20" relative="1" as="geometry">
            <Array as="points">
              <mxPoint x="-135" y="230" />
              <mxPoint x="-172" y="230" />
            </Array>
            <mxPoint as="offset" />
          </mxGeometry>
        </mxCell>
      </root>
    </mxGraphModel>
  </diagram>
</mxfile>
